<svg width="277" height="42" viewBox="0 0 277 42" fill="none" xmlns="http://www.w3.org/2000/svg">
<path d="M0.794922 41V-0.0078125H8.1582V18.8535H8.72461L24.7539 -0.0078125H33.7598L17.9004 18.4004L33.9297 41H25.0371L12.7461 23.3848L8.1582 28.7656V41H0.794922Z" fill="#0A0901"/>
<path d="M45.1559 41.623C35.8668 41.623 30.2027 35.4492 30.2027 25.8203C30.2027 16.3047 35.9801 9.84766 44.7594 9.84766C52.2926 9.84766 58.8063 14.5488 58.8063 25.3672V27.6328H37.3395C37.4244 32.8721 40.5113 35.959 45.2125 35.959C48.3844 35.959 50.5367 34.5996 51.443 32.7871H58.523C57.2203 38.1113 52.2926 41.623 45.1559 41.623ZM37.3961 22.7051H51.8961C51.8395 18.5137 49.0641 15.4551 44.8727 15.4551C40.5113 15.4551 37.6227 18.7686 37.3961 22.7051Z" fill="#0A0901"/>
<path d="M67.3137 22.9883V41H60.0637V10.2441H66.9738V15.4551H67.3703C68.7863 12 71.9016 9.84766 76.4895 9.84766C82.8898 9.84766 87.0813 14.0391 87.0246 21.4023V41H79.8313V22.5352C79.8313 18.4004 77.6223 15.9648 73.8273 15.9648C69.9758 15.9648 67.3137 18.5137 67.3137 22.9883Z" fill="#0A0901"/>
<path d="M103.235 41.623C93.9461 41.623 88.282 35.4492 88.282 25.8203C88.282 16.3047 94.0594 9.84766 102.839 9.84766C110.372 9.84766 116.886 14.5488 116.886 25.3672V27.6328H95.4187C95.5037 32.8721 98.5906 35.959 103.292 35.959C106.464 35.959 108.616 34.5996 109.522 32.7871H116.602C115.3 38.1113 110.372 41.623 103.235 41.623ZM95.4754 22.7051H109.975C109.919 18.5137 107.143 15.4551 102.952 15.4551C98.5906 15.4551 95.702 18.7686 95.4754 22.7051Z" fill="#0A0901"/>
<path d="M153.781 -0.0078125H161.201V26.7832C161.201 35.5625 154.518 41.623 144.549 41.623C134.523 41.623 127.896 35.5625 127.896 26.7832V-0.0078125H135.26V26.1602C135.26 31.3145 138.885 35.0527 144.549 35.0527C150.213 35.0527 153.781 31.3145 153.781 26.1602V-0.0078125Z" fill="#0A0901"/>
<path d="M175.543 41.5664C168.293 41.5664 162.855 35.7891 162.855 25.6504C162.855 15.3984 168.462 9.84766 175.599 9.84766C181.037 9.84766 183.302 13.0762 184.379 15.2852H184.662V-0.0078125H191.855V41H184.775V36.1289H184.379C183.246 38.3945 180.867 41.5664 175.543 41.5664ZM177.525 35.6191C182.17 35.6191 184.832 31.5977 184.832 25.5938C184.832 19.6465 182.226 15.7383 177.525 15.7383C172.711 15.7383 170.218 19.873 170.218 25.5938C170.218 31.4277 172.767 35.6191 177.525 35.6191Z" fill="#0A0901"/>
<path d="M208.462 41.623C199.173 41.623 193.509 35.4492 193.509 25.8203C193.509 16.3047 199.286 9.84766 208.066 9.84766C215.599 9.84766 222.113 14.5488 222.113 25.3672V27.6328H200.646C200.731 32.8721 203.818 35.959 208.519 35.959C211.691 35.959 213.843 34.5996 214.749 32.7871H221.829C220.527 38.1113 215.599 41.623 208.462 41.623ZM200.702 22.7051H215.202C215.146 18.5137 212.37 15.4551 208.179 15.4551C203.818 15.4551 200.929 18.7686 200.702 22.7051Z" fill="#0A0901"/>
<path d="M222.973 41V36.4121L238.833 16.4746V16.1914H223.483V10.2441H247.669V15.1719L232.546 34.7695V35.0527H248.235V41H222.973Z" fill="#0A0901"/>
<path d="M262.86 41.623C253.571 41.623 247.907 35.4492 247.907 25.8203C247.907 16.3047 253.684 9.84766 262.463 9.84766C269.996 9.84766 276.51 14.5488 276.51 25.3672V27.6328H255.043C255.128 32.8721 258.215 35.959 262.916 35.959C266.088 35.959 268.241 34.5996 269.147 32.7871H276.227C274.924 38.1113 269.996 41.623 262.86 41.623ZM255.1 22.7051H269.6C269.543 18.5137 266.768 15.4551 262.577 15.4551C258.215 15.4551 255.327 18.7686 255.1 22.7051Z" fill="#0A0901"/>
</svg>
