<svg xmlns="http://www.w3.org/2000/svg" width="1024" height="1024"><path d="M519.13 180.8c27.04 0 54.42 5.87 79.08 16.93 40.84 18.3 74.2 52.87 90.7 94.6 9.45 23.9 9.73 51.4 9.5 76.72-.12 14.6-.8 29.2-1.65 43.78-.43 7.33-.9 14.65-1.35 21.98-.25 4.03-.5 8.05-.74 12.07-.15 2.6-1.05 6.1-.48 8.64 1.25 5.62 10.15 9.36 15.06 10.9 12.97 4.1 26.53 1.15 39-3.3 7.45-2.65 14.15-7.1 22.3-6.34 5.92.54 12.77 3.18 16.98 7.46 4.42 4.5 3.5 8.94-.3 13.25-7.23 8.2-19.15 12.85-29.23 16.17-11.05 3.63-22.25 6.86-32.54 12.4-10.14 5.44-19.5 13.28-23.5 24.4-4.65 12.95-.77 26.1 4.7 38.1 9.3 20.34 21.36 39.4 35.47 56.77 26.38 32.47 60.86 58.8 101.3 70.8 5.94 1.77 11.96 3.23 18.05 4.37 2.58.48 4.25-.1 3.34 2.64-.12.36-.36.7-.54 1-1.35 2.26-3.56 4.07-5.66 5.6-11.92 8.72-27.62 12.73-41.7 16.18-6.66 1.64-13.38 3.05-20.12 4.32-6.7 1.26-14.86 1.3-21.12 4-10.45 4.54-12 20.13-14.14 29.75-.83 3.76-1.7 7.5-2.7 11.23-.88 3.3-.6 5-4.13 5.04-6.03.1-12.1-1.5-18-2.6-13.9-2.55-28-3.92-42.12-3.58-15.44.37-31.2 2.15-45.56 8.12-13.73 5.72-26 14.35-38.1 22.88-21.13 14.9-42.6 29.7-68.27 35.4-12.87 2.84-26.18 3.14-39.3 2.72-14-.45-27.8-3.36-40.8-8.57-24.76-9.95-44.9-27.54-67.26-41.62-12.7-8-26.2-14.34-41.12-16.68-15.83-2.5-31.92-3-47.86-1.3-6.2.67-12.33 1.65-18.45 2.8-6 1.12-12.47 3.24-18.6 3-2.9-.12-2.92-1-3.7-3.7-1.12-4.03-2.05-8.1-2.95-12.2-1.38-6.25-2.54-12.65-4.8-18.66-1.75-4.7-4.35-9.5-9.06-11.76-6.02-2.9-14.26-2.84-20.8-4.07-12.18-2.27-24.33-4.97-36.16-8.7-10.16-3.22-22.4-7.13-30.06-15.05-.73-.75-1.45-1.55-2-2.45-.17-.3-.42-.6-.52-.94-.83-2.55.16-2.2 2.65-2.66 11.77-2.16 23.3-5.5 34.4-9.95 20.33-8.14 39.03-19.98 55.58-34.27 24.28-20.95 44.38-47.03 59.37-75.35 5.12-9.68 10.62-20.27 12.35-31.08 4.35-27.14-18-42.5-40.5-50.7-11.97-4.34-24.3-7.32-35.46-13.66-5.08-2.9-14.97-8.67-14.2-15.88.58-5.48 7.36-9.18 11.9-10.88 3.06-1.15 6.43-1.9 9.73-1.72 3.97.22 7.37 2.32 11 3.8 13.14 5.4 27.85 9.23 42.13 7 7.14-1.1 14.54-3.8 19.7-9.07 1.23-1.27 1.7-1.8 1.97-3.34.5-2.83-.37-6.62-.53-9.46-.45-7.58-.94-15.16-1.4-22.74-1.8-28.9-3.53-58.05-1.38-87 .92-12.4 2.54-24.92 6.16-36.86 3.6-11.86 9.63-23.12 16.1-33.65 11.9-19.4 27.37-36.54 45.8-49.94 27-19.65 59.62-30.92 92.76-34.08 10.55-1 21.2-1 31.8-1M0 860.17C0 950.64 73.36 1024 163.84 1024h696.32c90.48 0 163.84-73.36 163.84-163.84V163.84C1024 73.36 950.64 0 860.16 0H163.84C73.36 0 0 73.36 0 163.84v696.32"/><path fill="#FFFC00" d="M19.2 163.84C19.2 83.97 83.97 19.2 163.84 19.2h696.32c79.87 0 144.64 64.77 144.64 144.64v696.32c0 79.87-64.77 144.64-144.64 144.64H163.84c-79.87 0-144.64-64.77-144.64-144.64V163.84m499.93 1.66c-24.47.1-48.23 1.6-71.93 8.33-37.8 10.72-71.88 32.26-96.65 62.9-15.35 18.98-28.7 41.56-34.43 65.45-6.4 26.62-6.34 54.7-5.5 81.9.44 14.37 1.28 28.72 2.18 43.07.22 3.47.44 6.93.66 10.4.15 2.32 1.84 11.15.45 12.74-2.9 3.3-12.1 3.06-15.86 2.92-6.73-.25-13.37-1.85-19.72-4-6.93-2.37-13.48-6.56-20.87-7.28-11.58-1.12-24.4 3.68-32.4 12.13-13.57 14.37-4.96 31.33 9.06 41.07 11.33 7.86 24.28 11.98 37.23 16.24 10.7 3.52 22.5 7.6 30.67 15.7 11.93 11.84 5.25 27.44-1.05 40.38-4.9 10.08-10.64 19.77-16.9 29.08-21.28 31.68-49.67 59.53-84.46 75.94-10.5 4.94-21.47 8.8-32.76 11.44-5.54 1.3-12.28 1.38-17.04 4.74-5.18 3.66-7.3 9.98-6.1 16.1 3.12 15.6 21.8 23.7 34.97 28.6 11.63 4.33 23.73 7.4 35.85 9.95 7.4 1.57 14.83 2.93 22.28 4.15 3.64.6 5.3.35 6.63 3.87 1.03 2.72 1.7 5.58 2.37 8.4 1.66 6.96 3 13.98 4.9 20.86 1.24 4.52 2.87 8.82 6.68 11.82 9.86 7.76 25.46 1.77 36.42-.18 29.26-5.2 61.15-5.02 87.5 10.14 22.9 13.16 42.65 31 66.6 42.44 25.47 12.18 53.62 15.7 81.6 13.1 26.2-2.45 49.9-13.2 71.66-27.56 23.75-15.67 45.6-35.56 74.78-39.52 15.9-2.15 32-2.03 47.86.18 11 1.53 22.44 5.37 33.62 4.4 15.17-1.33 16.76-17.84 19.4-29.8 1.05-4.8 1.53-12 4.4-16.1 1.7-2.43 6.46-2.18 9.37-2.67 4.06-.7 8.12-1.43 12.18-2.22 21.26-4.14 44.8-9.03 63.07-21.35 5.3-3.57 10.34-8.12 12.97-14.06 2.47-5.6 2.55-12.07-1.17-17.12-3.9-5.3-9.58-5.88-15.55-7.08-22.27-4.48-43.35-13.73-62.1-26.5-28.7-19.6-52-46.84-69.38-76.8-3.62-6.24-6.9-12.63-9.92-19.2-4.64-10.1-8.83-22.08-1.6-32.1 6.64-9.2 18.66-13.84 29-17.47 12.7-4.46 25.54-7.94 37.23-14.86 8.53-5.05 17.5-12.2 19.94-22.3 6.42-26.6-31.6-40.06-51.35-31.57-12.2 5.24-27.02 11.96-40.46 7.5-.87-.28-2.4-.56-3.04-1.22-1.08-1.1-.5-2.9-.4-4.6.22-3.9.47-7.8.7-11.7.38-6 .77-12.03 1.13-18.05 1.68-28.46 3.05-57.18.46-85.63-1.14-12.64-3.07-25.33-6.95-37.44-3.78-11.8-9.7-23.07-16.08-33.68-11.86-19.77-27.1-37.47-45.22-51.74-27.3-21.48-60.44-34.66-94.68-39.78-10-1.5-20.12-2.36-30.24-2.36M273.8 45.66a16.43 16.43 0 0 0 0 32.86 16.43 16.43 0 0 0 0-32.86m158.8 0a16.43 16.43 0 0 0 0 32.86 16.43 16.43 0 0 0 0-32.86m52.93 0a16.43 16.43 0 0 0 0 32.86 16.43 16.43 0 0 0 0-32.86m211.73 0a16.43 16.43 0 0 0 0 32.86 16.43 16.43 0 0 0 0-32.86m105.86 0a16.43 16.43 0 0 0 0 32.86 16.43 16.43 0 0 0 0-32.86M115.02 98.6a16.43 16.43 0 0 0 0 32.85 16.43 16.43 0 0 0 0-32.86m105.86 0a16.43 16.43 0 0 0 0 32.85 16.43 16.43 0 0 0 0-32.86m52.93 0a16.43 16.43 0 0 0 0 32.85 16.43 16.43 0 0 0 0-32.86m211.73 0a16.43 16.43 0 0 0 0 32.85 16.43 16.43 0 0 0 0-32.86m52.94 0a16.43 16.43 0 0 0 0 32.85 16.43 16.43 0 0 0 0-32.86m105.86 0a16.43 16.43 0 0 0 0 32.85 16.43 16.43 0 0 0 0-32.86m52.93 0a16.43 16.43 0 0 0 0 32.85 16.43 16.43 0 0 0 0-32.86m105.86 0a16.43 16.43 0 0 0 0 32.85 16.43 16.43 0 0 0 0-32.86m52.93 0a16.43 16.43 0 0 0 0 32.85 16.43 16.43 0 0 0 0-32.86m52.93 0a16.43 16.43 0 0 0 0 32.85 16.43 16.43 0 0 0 0-32.86M115.02 151.5a16.43 16.43 0 0 0 0 32.86 16.43 16.43 0 0 0 0-32.86m105.86 0a16.43 16.43 0 0 0 0 32.86 16.43 16.43 0 0 0 0-32.86m476.38 0a16.43 16.43 0 0 0 0 32.86 16.43 16.43 0 0 0 0-32.86M62.1 204.45a16.43 16.43 0 0 0 0 32.86 16.43 16.43 0 0 0 0-32.85m211.7 0a16.43 16.43 0 0 0 0 32.86 16.43 16.43 0 0 0 0-32.85m582.25 0a16.43 16.43 0 0 0 0 32.86 16.43 16.43 0 0 0 0-32.85M62.1 257.38a16.43 16.43 0 0 0 0 32.86 16.43 16.43 0 0 0 0-32.86m52.92 0a16.43 16.43 0 0 0 0 32.86 16.43 16.43 0 0 0 0-32.86m105.86 0a16.43 16.43 0 0 0 0 32.86 16.43 16.43 0 0 0 0-32.86m582.24 0a16.43 16.43 0 0 0 0 32.86 16.43 16.43 0 0 0 0-32.86m105.86 0a16.43 16.43 0 0 0 0 32.86 16.43 16.43 0 0 0 0-32.86M115.02 310.3a16.43 16.43 0 0 0 0 32.87 16.43 16.43 0 0 0 0-32.86m52.93 0a16.43 16.43 0 0 0 0 32.87 16.43 16.43 0 0 0 0-32.86m105.86 0a16.43 16.43 0 0 0 0 32.87 16.43 16.43 0 0 0 0-32.86m476.4 0a16.43 16.43 0 0 0 0 32.87 16.43 16.43 0 0 0 0-32.86m158.78 0a16.43 16.43 0 0 0 0 32.87 16.43 16.43 0 0 0 0-32.86m-793.96 52.94a16.43 16.43 0 0 0 0 32.86 16.43 16.43 0 0 0 0-32.86m741.03 0a16.43 16.43 0 0 0 0 32.86 16.43 16.43 0 0 0 0-32.86m52.93 0a16.43 16.43 0 0 0 0 32.86 16.43 16.43 0 0 0 0-32.86m52.93 0a16.43 16.43 0 0 0 0 32.86 16.43 16.43 0 0 0 0-32.86M62.1 416.17a16.43 16.43 0 0 0 0 32.86 16.43 16.43 0 0 0 0-32.86m52.92 0a16.43 16.43 0 0 0 0 32.86 16.43 16.43 0 0 0 0-32.86m793.96 0a16.43 16.43 0 0 0 0 32.86 16.43 16.43 0 0 0 0-32.86M62.08 469.1a16.43 16.43 0 0 0 0 32.86 16.43 16.43 0 0 0 0-32.86m52.94 0a16.43 16.43 0 0 0 0 32.86 16.43 16.43 0 0 0 0-32.86m793.96 0a16.43 16.43 0 0 0 0 32.86 16.43 16.43 0 0 0 0-32.86m-846.9 52.94a16.43 16.43 0 0 0 0 32.86 16.43 16.43 0 0 0 0-32.86m52.94 0a16.43 16.43 0 0 0 0 32.86 16.43 16.43 0 0 0 0-32.86m741.03 0a16.43 16.43 0 0 0 0 32.86 16.43 16.43 0 0 0 0-32.86m52.93 0a16.43 16.43 0 0 0 0 32.86 16.43 16.43 0 0 0 0-32.86m52.93 0a16.43 16.43 0 0 0 0 32.86 16.43 16.43 0 0 0 0-32.86M62.1 574.97a16.43 16.43 0 0 0 0 32.86 16.43 16.43 0 0 0 0-32.86m105.85 0a16.43 16.43 0 0 0 0 32.86 16.43 16.43 0 0 0 0-32.86m635.17 0a16.43 16.43 0 0 0 0 32.86 16.43 16.43 0 0 0 0-32.86m52.93 0a16.43 16.43 0 0 0 0 32.86 16.43 16.43 0 0 0 0-32.86m52.93 0a16.43 16.43 0 0 0 0 32.86 16.43 16.43 0 0 0 0-32.86m52.93 0a16.43 16.43 0 0 0 0 32.86 16.43 16.43 0 0 0 0-32.86M62.1 627.9a16.43 16.43 0 0 0 0 32.86 16.43 16.43 0 0 0 0-32.86m105.85 0a16.43 16.43 0 0 0 0 32.86 16.43 16.43 0 0 0 0-32.86m688.1 0a16.43 16.43 0 0 0 0 32.86 16.43 16.43 0 0 0 0-32.86m105.86 0a16.43 16.43 0 0 0 0 32.86 16.43 16.43 0 0 0 0-32.86M62.1 680.83a16.43 16.43 0 0 0 0 32.86 16.43 16.43 0 0 0 0-32.87M115 733.76a16.43 16.43 0 0 0 0 32.86 16.43 16.43 0 0 0 0-32.86m846.9 0a16.43 16.43 0 0 0 0 32.86 16.43 16.43 0 0 0 0-32.86M856.04 786.7a16.43 16.43 0 0 0 0 32.85 16.43 16.43 0 0 0 0-32.86m105.86 0a16.43 16.43 0 0 0 0 32.85 16.43 16.43 0 0 0 0-32.86M115.03 839.6a16.43 16.43 0 0 0 0 32.86 16.43 16.43 0 0 0 0-32.86m52.93 0a16.43 16.43 0 0 0 0 32.86 16.43 16.43 0 0 0 0-32.86m52.93 0a16.43 16.43 0 0 0 0 32.86 16.43 16.43 0 0 0 0-32.86m52.93 0a16.43 16.43 0 0 0 0 32.86 16.43 16.43 0 0 0 0-32.86m370.53 0a16.43 16.43 0 0 0 0 32.86 16.43 16.43 0 0 0 0-32.86m105.86 0a16.43 16.43 0 0 0 0 32.86 16.43 16.43 0 0 0 0-32.86m52.92 0a16.43 16.43 0 0 0 0 32.86 16.43 16.43 0 0 0 0-32.86m105.86 0a16.43 16.43 0 0 0 0 32.86 16.43 16.43 0 0 0 0-32.86m-741.03 52.93a16.43 16.43 0 0 0 0 32.86 16.43 16.43 0 0 0 0-32.85m52.93 0a16.43 16.43 0 0 0 0 32.86 16.43 16.43 0 0 0 0-32.85m52.93 0a16.43 16.43 0 0 0 0 32.86 16.43 16.43 0 0 0 0-32.85m52.94 0a16.43 16.43 0 0 0 0 32.86 16.43 16.43 0 0 0 0-32.85m423.45 0a16.43 16.43 0 0 0 0 32.86 16.43 16.43 0 0 0 0-32.85m105.85 0a16.43 16.43 0 0 0 0 32.86 16.43 16.43 0 0 0 0-32.85m52.93 0a16.43 16.43 0 0 0 0 32.86 16.43 16.43 0 0 0 0-32.85m-688.1 52.93a16.43 16.43 0 0 0 0 32.86 16.43 16.43 0 0 0 0-32.86m52.93 0a16.43 16.43 0 0 0 0 32.86 16.43 16.43 0 0 0 0-32.86m317.6 0a16.43 16.43 0 0 0 0 32.86 16.43 16.43 0 0 0 0-32.86m52.93 0a16.43 16.43 0 0 0 0 32.86 16.43 16.43 0 0 0 0-32.86m52.93 0a16.43 16.43 0 0 0 0 32.86 16.43 16.43 0 0 0 0-32.86m52.93 0a16.43 16.43 0 0 0 0 32.86 16.43 16.43 0 0 0 0-32.86"/><path fill="#fff" d="M519.13 180.8c27.04 0 54.42 5.87 79.08 16.93 40.84 18.3 74.2 52.87 90.7 94.6 9.45 23.9 9.73 51.4 9.5 76.72-.12 14.6-.8 29.2-1.65 43.78-.43 7.33-.9 14.65-1.35 21.98-.25 4.03-.5 8.05-.74 12.07-.15 2.6-1.05 6.1-.48 8.64 1.25 5.62 10.15 9.36 15.06 10.9 12.97 4.1 26.53 1.15 39-3.3 7.45-2.65 14.15-7.1 22.3-6.34 5.92.54 12.77 3.18 16.98 7.46 4.42 4.5 3.5 8.94-.3 13.25-7.23 8.2-19.15 12.85-29.23 16.17-11.05 3.63-22.25 6.86-32.54 12.4-10.14 5.44-19.5 13.28-23.5 24.4-4.65 12.95-.77 26.1 4.7 38.1 9.3 20.34 21.36 39.4 35.47 56.77 26.38 32.47 60.86 58.8 101.3 70.8 5.94 1.77 11.96 3.23 18.05 4.37 2.58.48 4.25-.1 3.34 2.64-.12.36-.36.7-.54 1-1.35 2.26-3.56 4.07-5.66 5.6-11.92 8.72-27.62 12.73-41.7 16.18-6.66 1.64-13.38 3.05-20.12 4.32-6.7 1.26-14.86 1.3-21.12 4-10.45 4.54-12 20.13-14.14 29.75-.83 3.76-1.7 7.5-2.7 11.23-.88 3.3-.6 5-4.13 5.04-6.03.1-12.1-1.5-18-2.6-13.9-2.55-28-3.92-42.12-3.58-15.44.37-31.2 2.15-45.56 8.12-13.73 5.72-26 14.35-38.1 22.88-21.13 14.9-42.6 29.7-68.27 35.4-12.87 2.84-26.18 3.14-39.3 2.72-14-.45-27.8-3.36-40.8-8.57-24.76-9.95-44.9-27.54-67.26-41.62-12.7-8-26.2-14.34-41.12-16.68-15.83-2.5-31.92-3-47.86-1.3-6.2.67-12.33 1.65-18.45 2.8-6 1.12-12.47 3.24-18.6 3-2.9-.12-2.92-1-3.7-3.7-1.12-4.03-2.05-8.1-2.95-12.2-1.38-6.25-2.54-12.65-4.8-18.66-1.75-4.7-4.35-9.5-9.06-11.76-6.02-2.9-14.26-2.84-20.8-4.07-12.18-2.27-24.33-4.97-36.16-8.7-10.16-3.22-22.4-7.13-30.06-15.05-.73-.75-1.45-1.55-2-2.45-.17-.3-.42-.6-.52-.94-.83-2.55.16-2.2 2.65-2.66 11.77-2.16 23.3-5.5 34.4-9.95 20.33-8.14 39.03-19.98 55.58-34.27 24.28-20.95 44.38-47.03 59.37-75.35 5.12-9.68 10.62-20.27 12.35-31.08 4.35-27.14-18-42.5-40.5-50.7-11.97-4.34-24.3-7.32-35.46-13.66-5.08-2.9-14.97-8.67-14.2-15.88.58-5.48 7.36-9.18 11.9-10.88 3.06-1.15 6.43-1.9 9.73-1.72 3.97.22 7.37 2.32 11 3.8 13.14 5.4 27.85 9.23 42.13 7 7.14-1.1 14.54-3.8 19.7-9.07 1.23-1.27 1.7-1.8 1.97-3.34.5-2.83-.37-6.62-.53-9.46-.45-7.58-.94-15.16-1.4-22.74-1.8-28.9-3.53-58.05-1.38-87 .92-12.4 2.54-24.92 6.16-36.86 3.6-11.86 9.63-23.12 16.1-33.65 11.9-19.4 27.37-36.54 45.8-49.94 27-19.65 59.62-30.92 92.76-34.08 10.55-1 21.2-1 31.8-1"/></svg>